HIERARCHY
ROOT Hips
{
	OFFSET 0.000000 0.000000 0.000000
	CHANNELS 6 Xposition Yposition Zposition Xrotation Yrotation Zrotation
	JOINT LeftUpLeg_virtual
	{
		OFFSET 0.000000 0.000000 0.000000
		CHANNELS 3 Xrotation Yrotation Zrotation
		JOINT LeftUpLeg
		{
			OFFSET 11.394100 -6.187798 -0.413800
			CHANNELS 3 Xrotation Yrotation Zrotation
			JOINT LeftLeg
			{
				OFFSET 0.430247 -32.302673 3.732800
				CHANNELS 3 Xrotation Yrotation Zrotation
				JOINT LeftFoot
				{
					OFFSET -0.430247 -48.264931 -6.423300
					CHANNELS 3 Xrotation Yrotation Zrotation
					JOINT LeftToeBase
					{
						OFFSET 4.230900 -16.068199 23.438400
						CHANNELS 3 Xrotation Yrotation Zrotation
						JOINT LeftToe_End
						{
							OFFSET 4.510700 0.695400 19.974600
							CHANNELS 3 Xrotation Yrotation Zrotation
							End Site
							{
								OFFSET 0 0 0
							}
						}
					}
				}
			}
		}
	}
	JOINT RightUpLeg_virtual
	{
		OFFSET 0.000000 0.000000 0.000000
		CHANNELS 3 Xrotation Yrotation Zrotation
		JOINT RightUpLeg
		{
			OFFSET -11.333700 -6.187798 -0.413800
			CHANNELS 3 Xrotation Yrotation Zrotation
			JOINT RightLeg
			{
				OFFSET -0.430392 -32.302628 3.733000
				CHANNELS 3 Xrotation Yrotation Zrotation
				JOINT RightFoot
				{
					OFFSET 0.430392 -48.264973 -6.423500
					CHANNELS 3 Xrotation Yrotation Zrotation
					JOINT RightToeBase
					{
						OFFSET -4.230900 -16.068199 23.438400
						CHANNELS 3 Xrotation Yrotation Zrotation
						JOINT RightToe_End
						{
							OFFSET -4.510700 0.695400 19.974600
							CHANNELS 3 Xrotation Yrotation Zrotation
							End Site
							{
								OFFSET 0 0 0
							}
						}
					}
				}
			}
		}
	}
	JOINT Spine_virtual
	{
		OFFSET 0.000000 0.000000 0.000000
		CHANNELS 3 Xrotation Yrotation Zrotation
		JOINT Spine
		{
			OFFSET -0.002400 12.777504 0.315300
			CHANNELS 3 Xrotation Yrotation Zrotation
			JOINT Spine1
			{
				OFFSET -0.002067 5.816869 0.032633
				CHANNELS 3 Xrotation Yrotation Zrotation
				JOINT Spine1_split
				{
					OFFSET -0.002067 5.816869 0.032633
					CHANNELS 3 Xrotation Yrotation Zrotation
					JOINT Spine2
					{
						OFFSET -0.002067 5.816869 0.032633
						CHANNELS 3 Xrotation Yrotation Zrotation
						JOINT Neck_virtual
						{
							OFFSET 0.000000 0.000000 0.000000
							CHANNELS 3 Xrotation Yrotation Zrotation
							JOINT Neck
							{
								OFFSET -0.003700 21.199493 -0.826900
								CHANNELS 3 Xrotation Yrotation Zrotation
								JOINT Head
								{
									OFFSET 0.000000 20.442200 4.834800
									CHANNELS 3 Xrotation Yrotation Zrotation
									JOINT HeadTop_End
									{
										OFFSET 0.000000 34.668396 4.968400
										CHANNELS 3 Xrotation Yrotation Zrotation
										End Site
										{
											OFFSET 0 0 0
										}
									}
								}
							}
						}
						JOINT LeftShoulder_virtual
						{
							OFFSET 0.000000 0.000000 0.000000
							CHANNELS 3 Xrotation Yrotation Zrotation
							JOINT LeftShoulder
							{
								OFFSET 3.288150 8.794197 -1.372250
								CHANNELS 3 Xrotation Yrotation Zrotation
								JOINT LeftShoulder_split
								{
									OFFSET 3.288150 8.794197 -1.372250
									CHANNELS 3 Xrotation Yrotation Zrotation
									JOINT LeftArm
									{
										OFFSET 11.953299 -2.279007 -0.146200
										CHANNELS 3 Xrotation Yrotation Zrotation
										JOINT LeftForeArm
										{
											OFFSET 18.448900 0.000000 0.000000
											CHANNELS 3 Xrotation Yrotation Zrotation
											JOINT LeftHand
											{
												OFFSET 29.527798 0.000000 0.000000
												CHANNELS 3 Xrotation Yrotation Zrotation
												End Site
												{
													OFFSET 0 0 0
												}
											}
										}
									}
								}
							}
						}
						JOINT RightShoulder_virtual
						{
							OFFSET 0.000000 0.000000 0.000000
							CHANNELS 3 Xrotation Yrotation Zrotation
							JOINT RightShoulder
							{
								OFFSET -3.249400 8.794197 -1.372250
								CHANNELS 3 Xrotation Yrotation Zrotation
								JOINT RightShoulder_split
								{
									OFFSET -3.249400 8.794197 -1.372250
									CHANNELS 3 Xrotation Yrotation Zrotation
									JOINT RightArm
									{
										OFFSET -11.953299 -2.279007 -0.146200
										CHANNELS 3 Xrotation Yrotation Zrotation
										JOINT RightForeArm
										{
											OFFSET -18.448900 0.000000 0.000000
											CHANNELS 3 Xrotation Yrotation Zrotation
											JOINT RightHand
											{
												OFFSET -29.527802 0.000000 0.000000
												CHANNELS 3 Xrotation Yrotation Zrotation
												End Site
												{
													OFFSET 0 0 0
												}
											}
										}
									}
								}
							}
						}
					}
				}
			}
		}
	}
}
MOTION
Frames: 6
Frame Time: 0.03333333
4.604868 75.786606 135.645996 0.000000 0.000000 0.000000 5.808075 -22.630088 -0.006039 27.936748 22.707497 10.859724 31.409260 8.677131 -1.837283 -29.055898 7.812628 -32.850191 -36.794738 -0.323604 -10.456324 0.000000 0.000000 0.000000 8.229367 -18.926114 -0.142326 -86.685414 -3.794842 -8.664655 54.624271 -0.587022 -4.598380 23.197597 7.208477 5.324351 -8.052079 4.774215 2.188058 0.000000 0.000000 0.000000 7.517852 -22.334106 2.046747 1.935601 -5.223149 0.189639 3.080134 -6.678823 0.757137 2.464117 -5.001574 0.670258 0.000000 0.000000 0.000000 4.145297 -6.254017 0.686725 13.005663 1.717214 11.428275 -1.496614 4.668337 -15.310538 0.000000 0.000000 0.000000 4.600579 -7.184160 0.086634 -2.539926 -15.685085 -17.112998 -5.758827 8.229809 -0.369829 -45.290578 -10.566248 -25.209721 -20.249916 -72.386509 9.396727 0.000000 0.000000 0.000000 3.795350 -6.228896 1.274089 -0.318531 -0.515846 -1.031530 -4.995872 -0.819583 -3.618501 -29.861058 41.787514 8.503799 47.868643 30.662509 -20.537079 0.000000 0.000000 0.000000 
3.859284 75.542923 140.889343 0.000000 0.000000 0.000000 8.980431 -26.225816 0.133569 33.710884 23.911343 8.623729 22.502736 11.312340 -0.533089 -27.700112 5.468827 -33.062299 -40.657756 -1.764354 -5.574511 0.000000 0.000000 0.000000 11.547195 -22.937481 0.173361 -85.994233 -3.526747 -4.044679 54.781027 -1.683003 -4.514434 19.351772 7.549832 3.827460 -7.892380 3.419180 2.993547 0.000000 0.000000 0.000000 10.100976 -27.211067 1.584467 2.037378 -7.832022 0.468587 3.325061 -10.165349 1.808041 2.086555 -3.287892 0.600379 0.000000 0.000000 0.000000 4.275234 -9.583595 2.041285 9.914477 4.798192 13.256803 0.994222 10.897568 -19.355230 0.000000 0.000000 0.000000 4.727718 -10.598272 1.533479 -4.367716 -20.799333 -17.698642 -6.364886 9.017594 -0.128346 -43.029157 -18.652362 -30.056876 -15.055955 -56.265316 10.528574 0.000000 0.000000 0.000000 3.838699 -9.638456 2.602205 -0.088133 -3.031320 5.698685 -4.199856 -1.016087 -3.647528 -20.312914 31.469113 0.612606 38.125710 23.758378 -9.161243 0.000000 0.000000 0.000000 
3.029998 75.511490 146.168137 0.000000 0.000000 0.000000 12.229280 -29.678388 0.402933 36.523853 26.853953 7.992939 17.744179 14.051515 -0.231040 -23.718824 1.946106 -30.837314 -38.201709 -4.082981 0.941208 0.000000 0.000000 0.000000 14.629961 -26.044894 0.411181 -85.085702 -2.590793 0.075131 55.762696 -2.601580 -4.405122 14.687364 7.953782 1.994944 -5.427444 2.774436 3.708510 0.000000 0.000000 0.000000 12.132844 -30.869730 0.923379 2.083091 -9.774699 0.697275 3.802451 -12.664693 2.784392 1.159465 -1.926364 0.500359 0.000000 0.000000 0.000000 4.834211 -11.951740 3.320112 6.203857 7.360152 15.005203 3.315063 15.690454 -22.225164 0.000000 0.000000 0.000000 5.030148 -12.940461 2.872673 -5.453313 -24.569422 -16.612741 -6.531006 8.606702 -0.140537 -41.706808 -26.973868 -35.621366 -12.462391 -40.963872 8.738650 0.000000 0.000000 0.000000 4.012000 -12.140729 3.685701 0.343869 -5.129046 10.038257 -3.170732 -0.672100 -2.755748 -17.281808 22.882845 -1.232375 31.202401 22.931870 -3.355999 0.000000 0.000000 0.000000 
2.359734 75.679565 151.100372 0.000000 0.000000 0.000000 14.882772 -33.610118 0.826307 34.847277 30.809419 9.901963 20.006673 16.024522 -1.443371 -14.374797 -3.496512 -26.852202 -30.071175 -5.669095 7.965268 0.000000 0.000000 0.000000 17.016259 -29.100072 0.604547 -84.042281 -1.351093 3.269917 57.149436 -3.113940 -4.263889 10.685510 8.694451 0.598433 -2.752632 2.821403 3.770838 0.000000 0.000000 0.000000 13.325591 -34.100218 0.062696 2.116396 -10.925241 0.952757 4.336505 -14.103476 3.502042 0.261492 -1.188634 0.334242 0.000000 0.000000 0.000000 5.540905 -13.299154 4.236579 2.360340 9.424136 16.663157 5.115389 19.257440 -23.898888 0.000000 0.000000 0.000000 5.285123 -14.207041 3.839564 -5.764015 -26.977528 -14.274123 -5.968653 7.381870 -0.526233 -42.731648 -34.109152 -42.211672 -10.800158 -29.447848 6.008269 0.000000 0.000000 0.000000 4.177243 -13.623623 4.360896 0.756859 -6.276400 12.069451 -1.868059 0.005257 -1.387812 -17.672266 16.586182 -0.259889 24.699142 26.168710 -0.385208 0.000000 0.000000 0.000000 
2.066024 76.144142 155.321747 0.000000 0.000000 0.000000 16.263913 -38.131413 1.219517 27.676719 34.270553 14.944333 29.723194 17.073902 -4.257780 0.393065 -9.164389 -20.385360 -18.865268 -4.983046 12.412644 0.000000 0.000000 0.000000 18.130747 -32.775465 0.766938 -82.419934 -0.029857 5.377264 57.818794 -2.860462 -4.233642 8.189206 9.815150 0.339366 -1.381820 3.268920 3.028234 0.000000 0.000000 0.000000 13.682460 -37.514572 -0.880171 2.223544 -11.265329 1.245888 4.739500 -14.584814 3.843959 -0.000083 -0.843479 0.818251 0.000000 0.000000 0.000000 6.104108 -13.767194 4.651387 -1.113389 11.104477 18.169739 6.299388 21.926811 -24.419472 0.000000 0.000000 0.000000 5.279390 -14.565384 4.222099 -5.482369 -28.072532 -11.448254 -4.747552 5.829462 -1.299568 -46.179097 -38.712734 -49.170959 -9.651850 -21.999206 3.090669 0.000000 0.000000 0.000000 4.233045 -14.141986 4.588129 1.040056 -6.073515 12.209468 -0.686331 0.093046 0.698566 -19.446846 12.372068 1.930954 17.739168 29.319844 1.435145 0.000000 0.000000 0.000000 
2.174043 76.977974 158.985626 0.000000 0.000000 0.000000 16.162142 -42.469375 1.297471 15.435217 34.843408 22.957458 44.146224 16.825698 -7.405639 16.336260 -12.180279 -11.869832 -8.176702 -2.685044 11.866489 0.000000 0.000000 0.000000 17.892063 -37.077839 0.784334 -79.479367 1.402827 6.647597 57.004861 -1.975823 -4.440556 6.282576 11.128514 1.258105 -1.130056 3.822006 1.861209 0.000000 0.000000 0.000000 13.232721 -41.070928 -1.843648 2.435288 -10.944406 1.611307 4.890386 -14.320942 3.809859 0.417971 -0.947742 1.269548 0.000000 0.000000 0.000000 6.268719 -13.558687 4.516196 -3.908104 12.399928 19.286468 6.748424 23.795112 -23.872578 0.000000 0.000000 0.000000 5.030539 -14.235227 4.037430 -4.825598 -28.089595 -8.799959 -3.473490 3.852693 -1.876382 -50.770852 -40.443947 -55.095670 -8.933603 -17.689582 0.443288 0.000000 0.000000 0.000000 4.086312 -13.903233 4.418422 1.226056 -4.776263 11.196370 0.458178 -0.634874 2.514155 -21.507931 9.866807 4.398215 10.354690 28.536742 2.696684 0.000000 0.000000 0.000000 
